<svg version="1.1" preserveAspectRatio="none" xmlns="http://www.w3.org/2000/svg" width="500" height="500" viewBox="0 0 500 500"><rect width="100%" height="100%" fill="#2089EF" fill-opacity="1"/><svg viewBox="69.9116 143.5567 346.5241 120.2055" width="333" height="115.51413451474228" x="83.5px" y="192.2429px" xmlns="http://www.w3.org/2000/svg" xmlns:xlink="http://www.w3.org/1999/xlink" preserveAspectRatio="none"><defs></defs><style>.companyName {fill:#D9F18A;fill-opacity:1;}.icon1 {fill:#FFA2E8;fill-opacity:1;}.icon2 {fill:#FFDEAC;fill-opacity:1;}.icon3 {fill:#89EFCA;fill-opacity:1;}.icon3-str {stroke:#89EFCA;stroke-opacity:1;}</style><g opacity="1" transform="rotate(0 191.1951 143.5567)">
<svg width="103.9572" height="54.2055" x="191.1951" y="143.5567" version="1.1" preserveAspectRatio="none" viewBox="4.390000343322754 21 92.89800262451172 48.439002990722656">
  <g transform="matrix(1 0 0 1 0 0)" class="icon1"><g><g><path d="M90.735,69.439H10.942c-3.613,0-6.552-2.94-6.552-6.556c0-2.861,1.832-5.37,4.559-6.244L49.6,43.354    l-0.003-1.732c0-1.753,0.683-3.399,1.921-4.637l2.6-2.604c1.151-1.15,1.784-2.676,1.784-4.298c0-3.354-2.729-6.083-6.085-6.083    c-3.353,0-6.081,2.729-6.081,6.083c0,0.829-0.671,1.5-1.5,1.5s-1.5-0.671-1.5-1.5c0-5.008,4.074-9.083,9.081-9.083    c5.01,0,9.085,4.074,9.085,9.083c0,2.423-0.945,4.703-2.662,6.419l-2.6,2.604c-0.673,0.672-1.043,1.565-1.043,2.514l0.003,1.906    l40.145,13.117c2.714,0.868,4.543,3.378,4.543,6.241C97.287,66.499,94.348,69.439,90.735,69.439z M50.837,46.105L9.873,59.494    c-1.488,0.477-2.482,1.838-2.482,3.39c0,1.961,1.594,3.556,3.552,3.556h79.793c1.958,0,3.552-1.595,3.552-3.556    c0-1.554-0.991-2.915-2.466-3.387L50.837,46.105z"></path></g></g></g>
</svg>
</g><g opacity="1" transform="rotate(0 69.9116 223.7622)">
<svg width="346.5241" height="40" x="69.9116" y="223.7622" version="1.1" preserveAspectRatio="none" viewBox="1.16 -33.56 317.75999999999993 36.68">
  <g transform="matrix(1 0 0 1 0 0)" class="companyName"><path id="id-D6z1nYkh8" d="M9.16-22.92C10.60-25.60 11.88-28.48 12.96-31.44C13.88-31.36 14.32-31.68 14.52-32.16L10.40-33.56C8.32-25.76 4.68-17.88 1.16-12.96L1.76-12.56C3.64-14.44 5.44-16.72 7.08-19.32L7.08 3.08L7.56 3.08C8.56 3.08 9.64 2.40 9.68 2.20L9.68-21.56C10.40-21.64 10.80-21.92 10.92-22.28ZM32.28-19.84C31.24-15.40 29.56-11.24 27.08-7.64C24.32-10.88 22.32-14.96 21.16-19.84ZM33.88-22.76L32.08-21.04L18.24-21.04L18.24-29.08L37.24-29.08C37.80-29.08 38.12-29.28 38.24-29.72C36.96-31 34.80-32.68 34.80-32.68L32.88-30.28L18.72-30.28L15.64-31.60L15.64-18.44C15.64-10.92 15.08-3.28 10.64 2.68L11.24 3.12C17.68-2.72 18.24-11.40 18.24-18.52L18.24-19.84L20.32-19.84C21.32-14.12 23.08-9.48 25.68-5.76C23.08-2.48 19.68 0.28 15.40 2.36L15.80 2.92C20.48 1.16 24.12-1.24 26.96-4.08C29.40-1.12 32.40 1.16 36.04 2.92C36.56 1.64 37.60 0.88 38.80 0.80L38.92 0.40C34.92-1.04 31.48-3.16 28.64-5.92C31.88-9.84 33.88-14.44 35.24-19.40C36.16-19.48 36.56-19.64 36.88-19.96Z M49.16-22.92C50.60-25.60 51.88-28.48 52.96-31.44C53.88-31.36 54.32-31.68 54.52-32.16L50.40-33.56C48.32-25.76 44.68-17.88 41.16-12.96L41.76-12.56C43.64-14.44 45.44-16.72 47.08-19.32L47.08 3.08L47.56 3.08C48.56 3.08 49.64 2.40 49.68 2.20L49.68-21.56C50.40-21.64 50.80-21.92 50.92-22.28ZM72.28-19.84C71.24-15.40 69.56-11.24 67.08-7.64C64.32-10.88 62.32-14.96 61.16-19.84ZM73.88-22.76L72.08-21.04L58.24-21.04L58.24-29.08L77.24-29.08C77.80-29.08 78.12-29.28 78.24-29.72C76.96-31 74.80-32.68 74.80-32.68L72.88-30.28L58.72-30.28L55.64-31.60L55.64-18.44C55.64-10.92 55.08-3.28 50.64 2.68L51.24 3.12C57.68-2.72 58.24-11.40 58.24-18.52L58.24-19.84L60.32-19.84C61.32-14.12 63.08-9.48 65.68-5.76C63.08-2.48 59.68 0.28 55.40 2.36L55.80 2.92C60.48 1.16 64.12-1.24 66.96-4.08C69.40-1.12 72.40 1.16 76.04 2.92C76.56 1.64 77.60 0.88 78.80 0.80L78.92 0.40C74.92-1.04 71.48-3.16 68.64-5.92C71.88-9.84 73.88-14.44 75.24-19.40C76.16-19.48 76.56-19.64 76.88-19.96Z M95.52-30.08C96.92-29.48 97.96-28.84 97.96-28.16C97.96-25.84 92.08-17.68 85.84-13.20L86.44-12.36C91.12-14.92 95.12-18.52 98.28-22.76C98.92-22.20 99.56-21.80 100-21.80C100.56-21.80 101.40-22.12 102.24-22.32C103.68-22.60 107.76-23.24 108.64-23.24C109-23.24 109.16-23.12 108.96-22.64C105.84-14.72 96.44-4.40 86.16 0.96L86.76 1.84C98.04-2.84 106.16-11.08 111.64-21.04C112.20-22.08 113.52-22.32 113.52-23.12C113.52-24.16 111-25.80 110.04-25.80C109.36-25.80 109.08-25.12 108-24.88C106.88-24.68 101.96-24.12 100.04-24.12C99.80-24.12 99.56-24.12 99.28-24.16C99.76-24.84 100.20-25.60 100.64-26.32C101.24-27.32 101.80-27.72 101.80-28.40C101.80-29.12 99.68-30.32 98.12-30.68C97.24-30.84 96.44-30.84 95.72-30.84Z M148.44-16.20C148.56-18.68 148.72-22.72 148.80-25.08C148.88-26.36 149.56-26.60 149.56-27.44C149.56-28.28 146.92-29.84 145.40-29.84C144.68-29.84 143.56-29.48 142.68-29.08L142.72-28.28C143.76-28.16 144.68-28 145.12-27.76C145.84-27.36 145.92-26.80 146-26.12C146.16-23.36 146.08-19.96 145.88-16.32C145.40-8.12 141.64-2.76 133.84 1.36L134.36 2.24C143.40-1.16 148-6.92 148.44-16.20ZM131.84-26.12C132.52-25.84 132.56-25.52 132.64-24.56C132.80-23.08 132.88-19.16 132.88-17.32C132.80-14.04 132.48-12.48 132.48-11.40C132.48-9.92 133.16-8.68 134.04-8.68C134.76-8.68 135.32-9.16 135.32-10.68C135.32-12.32 135.24-21.12 135.36-22.84C135.48-24.32 135.96-24.72 135.96-25.48C135.96-26.48 133.52-27.92 132.04-27.92C131.40-27.92 130.56-27.72 129.76-27.48L129.76-26.68C130.60-26.52 131.24-26.40 131.84-26.12Z M164.04-16.68C164.08-15.88 164.12-15.20 164.40-14.44C164.96-13.08 166.84-11.12 167.96-11.12C169.12-11.12 169.56-11.72 171.84-11.96C174.84-12.32 186.08-12.92 188.60-12.92C191.04-12.92 192.44-12.84 193.84-12.84C195.20-12.84 195.60-13.28 195.60-14C195.60-15.08 193.80-15.76 192.28-15.76C191.24-15.76 190.12-15.52 187.44-15.32C185.60-15.24 171.60-14.32 168.04-14.32C166.36-14.32 165.72-15.56 164.84-16.92Z M230.36-22.56C230.36-23.60 228.16-24.20 226.68-24.20C225.72-24.20 225.48-23.64 223.16-23.16C220.68-22.64 215.76-22.04 214.04-22.04C212.84-22.04 211.84-22.72 210.32-24.24L209.60-23.84C209.92-22.84 210.20-22.24 210.60-21.56C211.28-20.68 212.48-19.64 213.60-19.64C215.04-19.64 222.48-20.56 229.04-21.32C229.92-21.44 230.36-21.92 230.36-22.56ZM204.12-7.16C204.56-6.28 206.44-4.36 207.64-4.36C208.60-4.36 209.28-4.92 210.76-5.28C214.88-6.36 222.64-7 226.96-7C231.72-7 234.84-5.92 235.84-5.92C236.60-5.92 237.04-6.28 237.04-6.96C237.04-8.36 233.88-9.88 232.24-9.88C231.76-9.88 231.24-9.52 229.52-9.40C221.52-9.12 209.28-7.56 207.52-7.56C206.12-7.56 205.24-8.56 204.40-9.64L203.60-9.36C203.72-8.32 203.84-7.68 204.12-7.16Z M247.84-26.48C251.36-24.16 252.88-22.76 254.80-20.44C255.84-19.20 256.36-18.76 257-18.76C257.84-18.76 258.40-19.36 258.40-20.24C258.40-23.32 252.88-26.04 248.32-27.32ZM251.80-4.44C250.52-4.44 249.24-5.72 248.04-7.04L247.40-6.64C247.48-6 247.84-4.72 248.24-4.04C249.04-2.84 251.44-0.96 253-0.96C253.88-0.96 254.32-1.96 255.12-2.44C263.88-8.04 271.32-14.44 276.12-22.96L275.20-23.56C269.52-15.04 254.88-4.44 251.80-4.44Z M294.20-29.52C295.60-28.92 296.64-28.28 296.64-27.60C296.64-25.28 290.76-17.12 284.52-12.64L285.12-11.80C289.80-14.36 293.80-17.96 296.96-22.20C297.60-21.64 298.24-21.24 298.68-21.24C299.24-21.24 300.08-21.56 300.92-21.76C302.36-22.04 306.44-22.68 307.32-22.68C307.68-22.68 307.84-22.56 307.64-22.08C304.52-14.16 295.12-3.84 284.84 1.52L285.44 2.40C296.72-2.28 304.84-10.52 310.32-20.48C310.88-21.52 312.20-21.76 312.20-22.56C312.20-23.60 309.68-25.24 308.72-25.24C308.04-25.24 307.76-24.56 306.68-24.32C305.56-24.12 300.64-23.56 298.72-23.56C298.48-23.56 298.24-23.56 297.96-23.60C298.44-24.28 298.88-25.04 299.32-25.76C299.92-26.76 300.48-27.16 300.48-27.84C300.48-28.56 298.36-29.76 296.80-30.12C295.92-30.28 295.12-30.28 294.40-30.28ZM308.88-29.16C310.64-27.88 311.72-26.64 312.56-25.64C313.36-24.60 313.84-23.72 314.40-23.72C315-23.72 315.36-24.12 315.36-24.76C315.36-25.56 315-26.24 314-27.20C313-28.12 311.48-29 309.40-29.80ZM312.36-31.64C314.20-30.32 315.16-29.40 316.04-28.40C316.92-27.40 317.32-26.48 318-26.48C318.56-26.48 318.92-26.84 318.92-27.52C318.92-28.36 318.48-29.16 317.40-30C316.40-30.72 314.92-31.60 312.84-32.32Z"/></g>
</svg>
</g></svg></svg>